<svg width="28" height="39" viewBox="0 0 28 39" fill="none" xmlns="http://www.w3.org/2000/svg">
<path d="M25.0211 24.979C25.0211 31.0211 20.0842 35.9579 13.9684 35.9579C7.85265 35.9579 2.9158 31.0211 2.9158 24.979C2.9158 18.9369 7.85265 14 13.9684 14C20.0842 14 25.0211 18.9369 25.0211 24.979Z" fill="#7DC242"/>
<path d="M14.0421 38.8316C6.37894 38.8316 0.115784 32.6421 0.115784 24.979C0.115784 17.3158 6.37894 11.1263 14.0421 11.1263C21.7052 11.1263 27.8947 17.3895 27.8947 24.979C27.8947 32.5684 21.7052 38.8316 14.0421 38.8316ZM14.0421 16.8737C9.54736 16.8737 5.86315 20.4842 5.86315 24.979C5.86315 29.4737 9.54736 33.0842 14.0421 33.0842C18.5368 33.0842 22.221 29.4737 22.221 24.979C22.221 20.4842 18.5368 16.8737 14.0421 16.8737Z" fill="black"/>
<path d="M26.7158 4.05263C26.7158 6.26316 24.8737 8.10526 22.6632 8.10526C20.4526 8.10526 18.6105 6.26316 18.6105 4.05263C18.6105 1.84211 20.4526 0 22.6632 0C24.8737 0 26.7158 1.84211 26.7158 4.05263Z" fill="black"/>
<path d="M19.0526 15.9158L16.7684 14.9579L20.821 4.78948L23.1052 5.74737L19.0526 15.9158Z" fill="black"/>
<path d="M24.3579 3.97895C24.3579 4.86316 23.621 5.52632 22.7368 5.52632C21.8526 5.52632 21.1158 4.78948 21.1158 3.97895C21.1158 3.09474 21.8526 2.43158 22.7368 2.43158C23.621 2.43158 24.3579 3.09474 24.3579 3.97895Z" fill="#7DC242"/>
</svg>
