<svg width="807" height="708" viewBox="0 0 807 708" fill="none" xmlns="http://www.w3.org/2000/svg">
<path fill-rule="evenodd" clip-rule="evenodd" d="M458.575 447.602C452.166 437.247 444.262 427.951 435.695 419.437C427.055 410.975 417.665 403.356 407.939 396.341C388.506 382.226 367.834 370.291 348.508 356.653L341.254 351.536L334.144 346.22L330.589 343.559C329.413 342.662 328.264 341.728 327.101 340.814L320.137 335.299C311.003 327.764 301.974 320.081 293.363 311.935C288.98 307.944 284.79 303.751 280.553 299.606C278.41 297.557 276.402 295.373 274.32 293.262C272.271 291.12 270.161 289.037 268.162 286.848C264.153 282.478 260.07 278.175 256.204 273.677C254.254 271.442 252.267 269.239 250.348 266.977L244.635 260.156C242.71 257.9 240.859 255.582 239.015 253.259L233.466 246.3L228.072 239.221L225.374 235.682L222.755 232.084L217.519 224.885L212.433 217.579C209 212.74 205.799 207.739 202.498 202.808C189.559 182.906 177.709 162.301 166.828 141.215C156.042 120.079 146.168 98.4836 137.353 76.4804C135.187 70.9643 132.962 65.4719 130.925 59.9101L127.822 51.5846L124.845 43.216C123.841 40.4309 122.874 37.6329 121.943 34.8227L119.107 26.4108L116.406 17.9559C115.502 15.1402 114.603 12.3218 113.768 9.48534C109.876 -3.4308 108.195 -2.95115 111.972 10.0256C112.785 12.8809 113.66 15.7177 114.541 18.5528L117.17 27.0658L119.935 35.5363C120.84 38.3662 121.783 41.1841 122.763 43.9893L125.667 52.4178L128.696 60.8039C130.684 66.408 132.861 71.9416 134.973 77.5007C143.593 99.6766 153.265 121.46 163.863 142.804C174.56 164.096 186.234 184.927 199.03 205.076C202.294 210.071 205.459 215.133 208.861 220.039L213.9 227.442L219.093 234.74L221.691 238.389L224.369 241.979L229.726 249.16L235.243 256.224C237.078 258.582 238.918 260.936 240.835 263.227L246.525 270.156C248.433 272.455 250.416 274.694 252.359 276.966C256.214 281.536 260.288 285.915 264.292 290.358C266.285 292.587 268.398 294.706 270.445 296.885C272.526 299.033 274.531 301.256 276.675 303.342C280.917 307.559 285.109 311.832 289.5 315.899C298.128 324.198 307.193 332.029 316.37 339.718L323.373 345.342L326.882 348.148L330.461 350.861L337.621 356.288L344.932 361.511C364.447 375.451 385.068 387.476 404.133 401.399C413.689 408.327 422.816 415.757 431.168 423.944C439.453 432.181 447.054 441.126 453.17 450.982C453.924 452.162 454.646 453.311 455.286 454.455C455.924 455.55 456.563 456.646 457.202 457.741C458.334 459.906 459.501 461.866 460.394 463.763C460.87 464.699 461.329 465.596 461.766 466.454C462.174 467.327 462.565 468.158 462.935 468.953L464.025 471.211L464.939 473.261C465.509 474.551 466.09 475.661 466.531 476.633C466.897 477.457 467.301 478.264 467.741 479.051C468.471 480.326 469.045 480.927 469.429 480.835C469.815 480.742 470.013 479.956 469.993 478.457C469.971 477.527 469.905 476.598 469.795 475.674C469.67 474.568 469.384 473.315 469.076 471.87C468.912 471.151 468.746 470.38 468.533 469.578C468.289 468.786 468.03 467.948 467.761 467.069C467.478 466.191 467.194 465.261 466.851 464.306C466.478 463.362 466.088 462.376 465.679 461.348C464.898 459.268 463.8 457.136 462.686 454.803C462.098 453.654 461.433 452.494 460.766 451.281C460.113 450.061 459.366 448.845 458.575 447.602Z" fill="url(#paint0_linear_37_3)" fill-opacity="0.32"/>
<path fill-rule="evenodd" clip-rule="evenodd" d="M325.998 406.651C335.563 414.19 346.168 420.222 357.132 425.292C368.144 430.289 379.574 434.237 391.113 437.502C414.202 444.12 437.709 448.265 460.534 454.471L469.1 456.797L477.6 459.362L481.85 460.645C483.262 461.087 484.661 461.572 486.067 462.033L494.497 464.833C505.657 468.791 516.769 472.922 527.647 477.631C533.131 479.883 538.502 482.39 543.902 484.836C546.616 486.028 549.25 487.392 551.928 488.664C554.586 489.977 557.282 491.212 559.908 492.586C565.171 495.322 570.479 497.968 575.651 500.872C578.247 502.306 580.868 503.697 583.444 505.166L591.145 509.622C593.727 511.083 596.26 512.629 598.787 514.18L606.381 518.822L613.871 523.628L617.616 526.032L621.308 528.517L628.691 533.491L635.968 538.617C640.85 541.99 645.568 545.595 650.356 549.1C669.322 563.376 687.505 578.685 704.942 594.778C722.306 610.95 738.97 627.866 754.78 645.528C758.701 649.97 762.67 654.371 766.487 658.9L772.251 665.662L777.911 672.507C779.806 674.781 781.671 677.079 783.507 679.401L789.05 686.336L794.479 693.358C796.292 695.695 798.1 698.036 799.856 700.416C807.93 711.222 809.346 710.196 801.358 699.294C799.618 696.889 797.826 694.522 796.028 692.16L790.646 685.06L785.151 678.045C783.332 675.695 781.482 673.37 779.602 671.069L773.991 664.142L768.276 657.298C764.491 652.712 760.553 648.256 756.666 643.755C740.982 625.865 724.443 608.702 707.184 592.271C689.85 575.921 671.756 560.34 652.839 545.781C648.064 542.205 643.358 538.531 638.484 535.084L631.217 529.851L623.841 524.769L620.151 522.229L616.407 519.771L608.917 514.855L601.317 510.105C598.786 508.516 596.252 506.934 593.667 505.435L585.951 500.871C583.37 499.364 580.741 497.938 578.139 496.467C572.953 493.491 567.627 490.77 562.346 487.964C559.71 486.552 557 485.282 554.331 483.935C551.641 482.628 548.996 481.225 546.268 479.998C540.84 477.485 535.439 474.905 529.921 472.585C518.976 467.738 507.779 463.479 496.525 459.392L488.02 456.502L483.764 455.066L479.474 453.741L470.889 451.091L462.233 448.682C439.127 442.257 415.637 438.012 392.959 431.448C381.61 428.207 370.493 424.346 359.844 419.508C349.241 414.602 339.04 408.798 329.921 401.627C328.809 400.776 327.737 399.943 326.746 399.087C325.771 398.276 324.796 397.465 323.821 396.655C322.017 395.008 320.25 393.565 318.761 392.088C317.993 391.371 317.257 390.684 316.551 390.028C315.871 389.347 315.219 388.698 314.599 388.08L312.802 386.331L311.242 384.717C310.266 383.7 309.34 382.856 308.592 382.092C307.967 381.443 307.312 380.823 306.629 380.234C305.507 379.286 304.762 378.918 304.432 379.136C304.102 379.355 304.184 380.161 304.716 381.562C304.981 382.262 305.36 383.112 305.853 384.11C306.349 385.107 307.047 386.185 307.831 387.439C308.231 388.059 308.649 388.727 309.125 389.407L310.708 391.501C311.275 392.229 311.859 393.006 312.508 393.786L314.621 396.165C316.067 397.851 317.827 399.479 319.672 401.291C320.618 402.169 321.639 403.032 322.68 403.943C323.712 404.866 324.83 405.754 325.998 406.651Z" fill="#1D2026" fill-opacity="0.48"/>
<path fill-rule="evenodd" clip-rule="evenodd" d="M279.236 342.842C300.362 342.964 321.534 343.23 342.749 342.671C363.953 342.111 385.213 340.719 406.277 337.519C408.915 337.158 411.531 336.654 414.154 336.201C416.774 335.722 419.407 335.316 422.014 334.776C427.221 333.658 432.458 332.671 437.617 331.341C447.999 328.942 458.212 325.884 468.374 322.701L475.941 320.145L479.721 318.857L483.469 317.477L490.962 314.712L498.383 311.76L502.093 310.282L505.766 308.715L513.109 305.58L520.377 302.275L524.01 300.62L527.608 298.89L534.795 295.418L541.91 291.8C546.674 289.428 551.32 286.835 556.018 284.34C565.32 279.18 574.558 273.903 583.596 268.302C601.739 257.214 619.312 245.247 636.52 232.828C670.917 207.942 703.68 181.053 736.193 154.129C745.466 146.449 744.899 145.783 735.597 153.406C702.893 180.202 669.971 206.882 635.487 231.501C618.237 243.788 600.639 255.608 582.497 266.544C573.461 272.068 564.232 277.268 554.943 282.35C550.253 284.805 545.615 287.36 540.863 289.693L533.763 293.253L526.595 296.666L523.009 298.367L519.388 299.992L512.145 303.242L504.829 306.32L501.17 307.858L497.477 309.31L490.089 312.205L482.632 314.917L478.902 316.27C477.657 316.713 476.396 317.111 475.143 317.534L467.616 320.037C457.514 323.157 447.364 326.147 437.056 328.492C431.932 329.791 426.735 330.756 421.565 331.845C418.979 332.379 416.365 332.765 413.765 333.235C411.161 333.671 408.568 334.171 405.949 334.519C385.048 337.634 363.909 338.973 342.766 339.505C321.616 340.035 300.437 339.76 279.256 339.655C238.321 339.412 238.286 342.567 279.236 342.842Z" fill="white" fill-opacity="0.64"/>
<path fill-rule="evenodd" clip-rule="evenodd" d="M111.594 512.071C120.71 501.41 131.698 492.506 144.017 485.798C156.3 479.083 169.835 474.669 183.713 472.801C197.629 470.916 211.772 471.592 225.445 474.796C239.098 477.955 252.114 483.762 263.731 491.589C275.345 499.422 285.551 509.376 293.548 520.898C301.586 532.431 307.465 545.326 310.898 558.958C314.327 572.552 315.274 586.771 313.633 600.699C313.557 601.331 313.471 601.96 313.385 602.589C313.128 602.234 312.828 601.839 312.47 601.399C311.517 600.207 310.477 599.088 309.357 598.051C308.033 596.792 306.487 595.314 304.541 593.845C303.548 593.074 302.573 592.276 301.563 591.526L298.481 589.346L296.935 588.26L295.341 587.248L292.149 585.224C287.787 582.71 283.357 580.276 278.702 578.326C269.477 574.231 259.669 571.501 249.703 569.899C229.741 566.851 208.959 568.88 190.069 576.088C171.124 583.154 154.215 595.35 141.307 610.788C128.407 626.247 119.588 645.012 115.987 664.693C115.891 665.259 115.807 665.827 115.734 666.397C115.36 666.006 114.986 665.618 114.609 665.214C105.146 654.983 97.5823 643.001 92.3656 630.065C87.1277 617.089 84.2795 603.273 83.9588 589.283C83.2943 561.347 93.3498 533.296 111.594 512.07M80.7938 589.215C81.091 603.608 83.9976 617.828 89.3723 631.184C94.7283 644.503 102.515 656.845 112.272 667.381C117.005 672.46 121.631 676.418 125.73 679.609C129.892 682.725 133.532 685.077 136.55 686.761C138.067 687.592 139.389 688.323 140.548 688.901C141.528 689.356 142.518 689.791 143.515 690.205C145.116 690.86 145.959 691.092 146.049 690.916C146.141 690.74 145.479 690.155 144.07 689.18C143.366 688.694 142.475 688.109 141.398 687.427C140.343 686.708 139.115 685.871 137.712 684.913C134.903 683.01 131.486 680.506 127.534 677.33C124.161 674.514 120.382 671.188 116.436 667.132C116.585 666.524 116.744 665.779 116.909 664.867C120.703 645.351 129.699 626.906 142.613 611.848C155.538 596.806 172.297 585.078 190.905 578.385C209.467 571.546 229.751 569.781 249.181 572.868C258.883 574.497 268.421 577.193 277.394 581.208C281.925 583.118 286.232 585.5 290.482 587.949L293.591 589.922L295.145 590.908L296.651 591.967L299.659 594.089C300.644 594.819 301.595 595.596 302.565 596.346C304.461 597.772 306.028 599.132 307.434 600.23L310.964 602.978C311.854 603.645 312.57 604.112 313.12 604.403C311.181 617.031 307.114 629.318 301.199 640.641C294.755 653.102 285.916 664.288 275.426 673.572C264.929 682.859 252.722 690.198 239.61 695.146C226.499 700.106 212.479 702.61 198.478 702.575C184.44 702.533 170.527 699.941 157.417 694.923L152.561 692.955C151.168 692.405 150.05 691.848 149.122 691.473C147.284 690.689 146.33 690.359 146.28 690.46C146.229 690.561 147.082 691.095 148.857 692.04C149.752 692.496 150.845 693.124 152.227 693.727C153.608 694.33 155.222 695.031 157.079 695.798C170.303 700.918 184.349 703.591 198.53 703.685C212.681 703.775 226.862 701.29 240.145 696.329C253.471 691.354 265.782 684 276.478 674.624C287.136 665.258 296.145 653.957 302.726 641.348C309.357 628.775 313.752 615.002 315.503 600.863C317.233 586.725 316.33 572.268 312.902 558.43C309.466 544.54 303.54 531.389 295.411 519.614C287.318 507.842 276.957 497.645 265.145 489.597C253.334 481.554 240.078 475.573 226.139 472.277C212.173 468.935 197.712 468.177 183.473 470.04C169.217 471.892 155.421 476.344 142.772 483.173C130.109 489.999 118.802 499.084 109.41 509.979C90.6209 531.696 80.1597 560.463 80.7934 589.214" fill="url(#paint1_linear_37_3)"/>
<path fill-rule="evenodd" clip-rule="evenodd" d="M207.919 326.67C202.308 326.181 196.797 327.261 191.771 329.344C189.234 330.354 186.861 331.739 184.602 333.292L182.943 334.514L181.406 335.801C180.884 336.22 180.419 336.694 179.925 337.14C179.433 337.589 178.949 338.045 178.494 338.523C171.003 346.08 165.96 355.073 160.407 363.174C149.5 379.387 134.325 392.604 116.979 401.676C99.5874 410.66 79.9526 415.363 60.3197 414.659L58.4806 414.621L56.645 414.498L52.9737 414.247L49.3178 413.831L47.4898 413.621L45.6727 413.331L42.0385 412.743L38.4355 411.993C36.0203 411.543 33.671 410.824 31.2868 410.239C26.5887 408.832 21.9044 407.327 17.4071 405.356C15.1191 404.467 12.939 403.335 10.7105 402.31C9.61011 401.768 8.5411 401.166 7.45516 400.597C6.37243 400.02 5.28057 399.459 4.24133 398.809C-0.548076 395.948 -1.54181 397.39 3.28298 400.42C4.32695 401.107 5.42432 401.702 6.51303 402.315C7.60583 402.919 8.68179 403.559 9.78997 404.135C12.034 405.233 14.2333 406.437 16.5429 407.402C21.0831 409.519 25.8222 411.175 30.5901 412.73C33.0076 413.391 35.3966 414.182 37.8539 414.706L41.5239 415.568L45.2286 416.268L47.0833 416.611L48.9517 416.875L52.691 417.398L56.4527 417.755L58.3347 417.928L60.2235 418.019C80.3748 419.272 100.886 414.962 119.183 406.037C137.432 397.045 153.647 383.509 165.348 366.634C171.182 358.318 176.208 349.703 182.945 343.024C186.315 339.645 189.966 336.974 194.21 335.248C198.404 333.503 202.989 332.646 207.344 333.019C211.54 333.418 214.411 334.481 216.489 335.215C217.56 335.546 218.359 335.886 219.034 335.996C219.706 336.111 220.214 336.042 220.502 335.769C220.789 335.495 220.856 335.017 220.643 334.312C220.426 333.611 219.968 332.634 219.005 331.649C218.757 331.375 218.502 331.108 218.24 330.847C217.961 330.57 217.622 330.347 217.279 330.082C216.911 329.813 216.538 329.55 216.16 329.294C215.763 329.02 215.308 328.829 214.846 328.589C212.999 327.6 210.626 326.971 207.919 326.67Z" fill="url(#paint2_linear_37_3)"/>
<defs>
<linearGradient id="paint0_linear_37_3" x1="24951.8" y1="37821.6" x2="33395.2" y2="2215.2" gradientUnits="userSpaceOnUse">
<stop stop-color="#7DC242" stop-opacity="0"/>
<stop offset="0.51568" stop-color="#99E05C"/>
<stop offset="1" stop-color="#7DC242"/>
</linearGradient>
<linearGradient id="paint1_linear_37_3" x1="-10231.2" y1="-4595.76" x2="442.937" y2="-25544.9" gradientUnits="userSpaceOnUse">
<stop stop-color="white" stop-opacity="0.32"/>
<stop offset="1" stop-color="#0270D7" stop-opacity="0"/>
</linearGradient>
<linearGradient id="paint2_linear_37_3" x1="0.000305176" y1="397.46" x2="2819.67" y2="5444.8" gradientUnits="userSpaceOnUse">
<stop stop-color="#9DEB5B"/>
<stop offset="1" stop-color="white" stop-opacity="0"/>
</linearGradient>
</defs>
</svg>
